<?xml version="1.0" standalone="no"?>
<!DOCTYPE svg PUBLIC "-//W3C//DTD SVG 20010904//EN"
 "http://www.w3.org/TR/2001/REC-SVG-20010904/DTD/svg10.dtd">
<svg version="1.0" xmlns="http://www.w3.org/2000/svg"
 width="149.000000pt" height="45.000000pt" viewBox="0 0 149.000000 45.000000"
 preserveAspectRatio="xMidYMid meet">

<g transform="translate(0.000000,45.000000) scale(0.100000,-0.100000)"
fill="#000000" stroke="none">
<path d="M198 437 c-25 -7 -57 -21 -71 -30 -79 -52 -16 -136 128 -171 107 -26
133 -27 65 -3 -36 13 -75 30 -88 38 -26 16 -38 47 -24 61 17 17 85 20 140 5
l52 -14 0 53 c0 29 -4 56 -10 59 -21 13 -147 14 -192 2z"/>
<path d="M738 340 c-16 -8 -28 -20 -28 -26 0 -8 -30 -13 -85 -15 -96 -4 -122
-19 -111 -63 5 -20 17 -28 53 -39 26 -8 49 -19 51 -25 6 -20 -28 -25 -47 -8
-18 16 -61 22 -61 9 1 -25 45 -53 84 -53 36 0 75 20 82 42 9 29 -22 68 -54 68
-16 0 -37 6 -48 14 -18 14 -18 15 -1 22 10 3 23 2 30 -5 6 -6 33 -11 59 -11
l48 0 0 -37 c0 -78 25 -105 79 -88 27 8 27 31 1 38 -16 4 -20 14 -20 46 0 34
3 41 20 41 15 0 20 7 20 25 0 18 -5 25 -19 25 -14 0 -21 8 -23 28 -3 27 -4 28
-30 12z"/>
<path d="M1042 334 c-20 -14 -22 -23 -22 -110 0 -56 4 -94 10 -94 6 0 10 5 10
12 0 9 3 9 12 0 18 -18 28 -14 28 12 0 13 7 29 15 36 12 10 17 6 32 -24 13
-29 22 -36 46 -36 l29 0 -26 46 c-32 56 -32 62 -4 91 l21 23 -31 0 c-21 0 -37
-8 -50 -25 -11 -14 -23 -25 -26 -25 -3 0 -6 25 -6 55 0 59 -4 63 -38 39z m98
-80 c0 -8 -4 -12 -10 -9 -5 3 -10 10 -10 16 0 5 5 9 10 9 6 0 10 -7 10 -16z"/>
<path d="M880 289 c-41 -16 -60 -40 -60 -75 0 -25 4 -32 14 -28 11 4 13 0 9
-14 -5 -22 11 -37 45 -37 28 -1 28 4 -2 33 -21 19 -23 27 -15 54 13 47 37 59
63 32 25 -24 19 -34 -19 -34 -19 0 -35 -4 -35 -9 0 -5 27 -9 60 -10 53 0 60 2
60 19 0 26 -39 67 -70 73 -14 3 -36 1 -50 -4z"/>
<path d="M1254 286 c-35 -15 -44 -32 -44 -80 0 -41 17 -64 58 -75 25 -8 32 -7
32 5 0 8 5 14 10 14 6 0 10 -4 10 -10 0 -16 18 -12 40 10 22 22 27 78 10 110
-5 10 -24 23 -41 29 -39 13 -37 13 -75 -3z m64 -38 c32 -32 -1 -104 -36 -81
-20 12 -26 36 -18 69 7 26 34 32 54 12z m42 -62 c0 -3 -4 -8 -10 -11 -5 -3
-10 -1 -10 4 0 6 5 11 10 11 6 0 10 -2 10 -4z"/>
<path d="M208 223 c7 -3 16 -2 19 1 4 3 -2 6 -13 5 -11 0 -14 -3 -6 -6z"/>
<path d="M260 210 c0 -5 5 -10 11 -10 21 0 69 -42 69 -60 0 -30 -36 -43 -104
-37 -34 3 -69 9 -79 12 -15 6 -17 1 -17 -43 0 -36 4 -52 16 -56 27 -10 155 -7
196 6 69 20 115 89 71 105 -10 4 -22 11 -26 17 -6 8 -10 7 -14 -1 -2 -7 -9
-13 -14 -13 -14 0 -11 38 4 43 6 2 -14 13 -46 25 -66 25 -67 25 -67 12z"/>
<path d="M518 30 c-5 -30 6 -41 15 -17 4 9 8 8 16 -3 8 -12 11 -8 11 18 0 25
-4 32 -19 32 -13 0 -20 -9 -23 -30z m32 10 c0 -5 -2 -10 -4 -10 -3 0 -8 5 -11
10 -3 6 -1 10 4 10 6 0 11 -4 11 -10z"/>
<path d="M600 30 c0 -17 5 -30 10 -30 6 0 10 8 10 18 1 16 1 16 11 0 5 -10 15
-18 21 -18 7 0 6 5 -2 15 -10 12 -10 18 0 30 15 18 -1 20 -18 3 -9 -9 -12 -9
-12 0 0 7 -4 12 -10 12 -5 0 -10 -13 -10 -30z"/>
<path d="M690 30 c0 -17 5 -30 10 -30 6 0 10 13 10 30 0 17 -4 30 -10 30 -5 0
-10 -13 -10 -30z"/>
<path d="M746 43 c-4 -9 0 -23 9 -32 12 -13 17 -13 27 -2 9 9 9 12 1 7 -20
-11 -27 16 -8 31 18 12 18 13 -2 13 -11 0 -24 -8 -27 -17z"/>
<path d="M820 30 c0 -17 5 -30 10 -30 6 0 10 7 10 15 0 8 5 15 10 15 6 0 10
-8 10 -17 0 -12 3 -14 11 -6 6 6 8 21 4 33 -6 18 -9 20 -17 9 -7 -11 -11 -11
-15 -1 -9 23 -23 12 -23 -18z"/>
<path d="M910 30 c0 -17 5 -30 10 -30 6 0 10 13 10 30 0 17 -4 30 -10 30 -5 0
-10 -13 -10 -30z"/>
<path d="M1010 30 c0 -28 3 -31 28 -28 21 2 27 8 27 28 0 20 -6 26 -28 28 -24
3 -27 0 -27 -28z m40 -10 c0 -5 -4 -10 -10 -10 -5 0 -10 5 -10 10 0 6 5 10 10
10 6 0 10 -4 10 -10z"/>
<path d="M1100 30 c0 -17 5 -30 10 -30 6 0 10 13 10 30 0 17 -4 30 -10 30 -5
0 -10 -13 -10 -30z"/>
<path d="M1161 30 c1 -19 3 -27 6 -17 4 17 6 17 22 2 17 -15 18 -14 17 15 -1
31 -10 40 -19 18 -4 -10 -8 -9 -16 2 -8 12 -10 7 -10 -20z"/>
<path d="M1250 30 c1 -29 2 -32 11 -17 10 18 11 18 25 0 12 -16 13 -15 14 15
0 32 -14 44 -23 20 -4 -10 -8 -9 -16 2 -8 12 -11 7 -11 -20z"/>
<path d="M1353 53 c18 -5 17 -6 -2 -20 -26 -18 -17 -36 12 -27 29 9 30 9 22
33 -4 13 -14 21 -28 20 -18 -1 -19 -2 -4 -6z m17 -27 c0 -3 -4 -8 -10 -11 -5
-3 -10 -1 -10 4 0 6 5 11 10 11 6 0 10 -2 10 -4z"/>
</g>
</svg>
